<?xml version="1.0" encoding="UTF-8" standalone="no"?>
<svg
   version="1.1"
   width="1.9in"
   height="1.9in"
   id="svg44"
   sodipodi:docname="Logo.svg"
   inkscape:version="1.1.1 (3bf5ae0d25, 2021-09-20)"
   xmlns:inkscape="http://www.inkscape.org/namespaces/inkscape"
   xmlns:sodipodi="http://sodipodi.sourceforge.net/DTD/sodipodi-0.dtd"
   xmlns="http://www.w3.org/2000/svg"
   xmlns:svg="http://www.w3.org/2000/svg">
  <defs
     id="defs48" />
  <sodipodi:namedview
     id="namedview46"
     pagecolor="#ffffff"
     bordercolor="#999999"
     borderopacity="1"
     inkscape:pageshadow="0"
     inkscape:pageopacity="0"
     inkscape:pagecheckerboard="0"
     showgrid="false"
     inkscape:zoom="1.4664728"
     inkscape:cx="415.28217"
     inkscape:cy="213.77826"
     inkscape:window-width="2560"
     inkscape:window-height="1369"
     inkscape:window-x="-8"
     inkscape:window-y="322"
     inkscape:window-maximized="1"
     inkscape:current-layer="svg44"
     units="in"
     width="6.25in"
     height="2in"
     inkscape:document-units="in" />
  <path
     d="M 175.30312,129.10479 H 147.95846 L 134.93728,98.667658 V 129.10479 H 109.87136 V 61.231704 h 25.06592 v 22.78707 l 25.71696,-22.78707 h 10.74244 l -19.04355,17.09033 z"
     style="fill:#e30016;fill-rule:evenodd;stroke-width:1.07966"
     id="path2" />
  <path
     d="m 87.572509,59.115664 c 3.25529,0 6.02236,0.97667 8.13829,2.76708 2.44144,1.7904 3.418114,4.06914 3.418114,6.51059 0,2.60426 -0.976674,4.88299 -3.418114,6.51059 -2.27874,1.95322 -4.883,2.76707 -8.301,2.76707 -3.09259,0 -6.02237,-0.81385 -8.13829,-2.76707 -2.27874,-1.6276 -3.41811,-3.90633 -3.41811,-6.51059 0,-2.44145 1.13937,-4.72019 3.41811,-6.51059 2.27874,-1.79041 5.0457,-2.76708 8.301,-2.76708 z"
     style="fill:#e30016;fill-rule:evenodd;stroke-width:1.07966"
     id="path6" />
  <path
     d="M 97.664019,129.10479 H 77.318289 V 80.437954 l 20.34573,-0.48833 z"
     style="fill:#e30016;fill-rule:evenodd;stroke-width:1.07966"
     id="path10" />
  <path
     d="m 31.744039,112.33998 c 4.23185,-3.90633 7.64996,-8.301 9.76588,-13.346802 1.46489,4.231952 3.09259,8.626622 3.41811,13.346802 z m -2.44145,16.76481 H 9.4451893 V 61.231704 H 29.302589 v 8.4637 c 7.48715,-5.37122 15.46263,-9.76589 22.78707,-12.858368 -1.13937,11.067958 6.34789,20.020108 11.88192,23.763738 0.81385,0.48822 2.11593,1.95311 2.44145,2.27863 7.97548,7.32444 0.65104,19.043546 -7.32444,21.159576 -6.99893,2.11593 -12.85848,-0.48833 -17.74137,-6.022352 -4.39467,3.418102 -8.30111,5.534022 -12.04463,6.022352 z m 0,-46.713616 v 9.44037 c 0.81374,0.81385 1.95311,1.30208 3.418,1.46489 1.95322,-0.16281 5.69685,-1.13937 7.97548,-2.92978 2.27874,2.76697 5.20852,3.90634 8.46382,2.92978 3.90644,-0.97655 7.32444,-6.6734 3.58092,-10.0914 -0.16282,-0.16282 -0.48833,-0.32563 -0.65115,-0.48834 -2.76696,-1.7904 -6.83611,-6.83611 -6.18507,-12.20744 -4.72018,1.95322 -10.41693,5.04571 -14.9744,8.95215 -0.48834,0.81385 -1.13937,1.95311 -1.6276,2.92977 z"
     style="fill:#e30016;fill-rule:evenodd;stroke-width:1.07966"
     id="path34" />
</svg>
