<?xml version="1.0" encoding="UTF-8" standalone="no"?>
<svg
   id="visual"
   viewBox="0 0 960.00006 1146.6409"
   width="960.00006"
   height="1146.6409"
   version="1.1"
   sodipodi:docname="background.svg"
   inkscape:version="1.1.1 (3bf5ae0d25, 2021-09-20)"
   xmlns:inkscape="http://www.inkscape.org/namespaces/inkscape"
   xmlns:sodipodi="http://sodipodi.sourceforge.net/DTD/sodipodi-0.dtd"
   xmlns="http://www.w3.org/2000/svg"
   xmlns:svg="http://www.w3.org/2000/svg">
  <defs
     id="defs27" />
  <sodipodi:namedview
     id="namedview25"
     pagecolor="#ffffff"
     bordercolor="#999999"
     borderopacity="1"
     inkscape:pageshadow="0"
     inkscape:pageopacity="0"
     inkscape:pagecheckerboard="0"
     showgrid="false"
     inkscape:zoom="0.22627417"
     inkscape:cx="532.5398"
     inkscape:cy="1164.5165"
     inkscape:window-width="1335"
     inkscape:window-height="1081"
     inkscape:window-x="781"
     inkscape:window-y="814"
     inkscape:window-maximized="0"
     inkscape:current-layer="visual"
     fit-margin-top="0"
     fit-margin-left="0"
     fit-margin-right="0"
     fit-margin-bottom="0" />
  <path
     d="m 0,376 11.5,-1.5 C 23,373 46,370 68.8,384.3 c 22.9,14.4 45.5,46 68.4,34.9 22.8,-11.2 45.8,-65.2 68.6,-72 22.9,-6.9 45.5,33.5 68.4,31 22.8,-2.5 45.8,-47.9 68.6,-41.5 22.9,6.3 45.5,64.3 68.4,74.1 22.8,9.9 45.8,-28.5 68.8,-30 23,-1.5 46,33.9 68.8,50.5 22.9,16.7 45.5,14.7 68.4,-17.3 22.8,-32 45.8,-94 68.6,-119.8 22.9,-25.9 45.5,-15.5 68.4,-5.9 22.8,9.7 45.8,18.7 68.6,45.5 22.9,26.9 45.5,71.5 68.4,79.5 22.8,8 45.8,-20.6 57.3,-35 L 960,364 V 0 H 948.5 C 937,0 914,0 891.2,0 868.3,0 845.7,0 822.8,0 800,0 777,0 754.2,0 731.3,0 708.7,0 685.8,0 663,0 640,0 617.2,0 594.3,0 571.7,0 548.8,0 526,0 503,0 480,0 457,0 434,0 411.2,0 388.3,0 365.7,0 342.8,0 320,0 297,0 274.2,0 251.3,0 228.7,0 205.8,0 183,0 160,0 137.2,0 114.3,0 91.7,0 68.8,0 46,0 23,0 11.5,0 H 0 Z"
     fill="#780b04"
     id="path4" />
  <path
     d="m 0,263 11.5,16 c 11.5,16 34.5,48 57.3,67.5 22.9,19.5 45.5,26.5 68.4,15.8 22.8,-10.6 45.8,-39 68.6,-33.6 22.9,5.3 45.5,44.3 68.4,36.5 22.8,-7.9 45.8,-62.5 68.6,-61.9 22.9,0.7 45.5,56.7 68.4,75.4 22.8,18.6 45.8,0 68.8,-28.5 23,-28.5 46,-66.9 68.8,-57.4 22.9,9.5 45.5,66.9 68.4,67 22.8,0.2 45.8,-56.8 68.6,-56.3 22.9,0.5 45.5,58.5 68.4,55.5 22.8,-3 45.8,-67 68.6,-91.8 22.9,-24.9 45.5,-10.5 68.4,17.1 C 914,312 937,353 948.5,373.5 L 960,394 V 0 H 948.5 C 937,0 914,0 891.2,0 868.3,0 845.7,0 822.8,0 800,0 777,0 754.2,0 731.3,0 708.7,0 685.8,0 663,0 640,0 617.2,0 594.3,0 571.7,0 548.8,0 526,0 503,0 480,0 457,0 434,0 411.2,0 388.3,0 365.7,0 342.8,0 320,0 297,0 274.2,0 251.3,0 228.7,0 205.8,0 183,0 160,0 137.2,0 114.3,0 91.7,0 68.8,0 46,0 23,0 11.5,0 H 0 Z"
     fill="#861908"
     id="path6" />
  <path
     d="m 0,307 11.5,-1.8 C 23,303.3 46,299.7 68.8,286 c 22.9,-13.7 45.5,-37.3 68.4,-44.5 22.8,-7.2 45.8,2.2 68.6,6.8 22.9,4.7 45.5,4.7 68.4,7.2 22.8,2.5 45.8,7.5 68.6,29.3 22.9,21.9 45.5,60.5 68.4,66.5 22.8,6 45.8,-20.6 68.8,-45.8 23,-25.2 46,-48.8 68.8,-54.5 22.9,-5.7 45.5,6.7 68.4,9.3 22.8,2.7 45.8,-4.3 68.6,5.5 22.9,9.9 45.5,36.5 68.4,58 22.8,21.5 45.8,37.9 68.6,26.7 22.9,-11.2 45.5,-49.8 68.4,-69.7 C 914,261 937,260 948.5,259.5 L 960,259 V 0 H 948.5 C 937,0 914,0 891.2,0 868.3,0 845.7,0 822.8,0 800,0 777,0 754.2,0 731.3,0 708.7,0 685.8,0 663,0 640,0 617.2,0 594.3,0 571.7,0 548.8,0 526,0 503,0 480,0 457,0 434,0 411.2,0 388.3,0 365.7,0 342.8,0 320,0 297,0 274.2,0 251.3,0 228.7,0 205.8,0 183,0 160,0 137.2,0 114.3,0 91.7,0 68.8,0 46,0 23,0 11.5,0 H 0 Z"
     fill="#94240a"
     id="path8" />
  <path
     d="m 0,169 11.5,21 c 11.5,21 34.5,63 57.3,90 22.9,27 45.5,39 68.4,32.2 22.8,-6.9 45.8,-32.5 68.6,-46.4 22.9,-13.8 45.5,-15.8 68.4,-14.3 22.8,1.5 45.8,6.5 68.6,8.7 22.9,2.1 45.5,1.5 68.4,14 22.8,12.5 45.8,38.1 68.8,46 23,7.8 46,-2.2 68.8,-20 22.9,-17.9 45.5,-43.5 68.4,-53.4 22.8,-9.8 45.8,-3.8 68.6,-5.1 22.9,-1.4 45.5,-10 68.4,3.3 22.8,13.3 45.8,48.7 68.6,55.7 22.9,7 45.5,-14.4 68.4,-34.4 22.8,-20 45.8,-38.6 57.3,-48 L 960,209 V 0 H 948.5 C 937,0 914,0 891.2,0 868.3,0 845.7,0 822.8,0 800,0 777,0 754.2,0 731.3,0 708.7,0 685.8,0 663,0 640,0 617.2,0 594.3,0 571.7,0 548.8,0 526,0 503,0 480,0 457,0 434,0 411.2,0 388.3,0 365.7,0 342.8,0 320,0 297,0 274.2,0 251.3,0 228.7,0 205.8,0 183,0 160,0 137.2,0 114.3,0 91.7,0 68.8,0 46,0 23,0 11.5,0 H 0 Z"
     fill="#a3300c"
     id="path10" />
  <path
     d="m 0,158 11.5,5.2 c 11.5,5.1 34.5,15.5 57.3,20.6 22.9,5.2 45.5,5.2 68.4,14 22.8,8.9 45.8,26.5 68.6,43 22.9,16.5 45.5,31.9 68.4,25.7 22.8,-6.2 45.8,-33.8 68.6,-53.7 22.9,-19.8 45.5,-31.8 68.4,-18.1 22.8,13.6 45.8,53 68.8,52.3 23,-0.7 46,-41.3 68.8,-48.8 22.9,-7.5 45.5,18.1 68.4,36.5 22.8,18.3 45.8,29.3 68.6,18.1 22.9,-11.1 45.5,-44.5 68.4,-52.3 22.8,-7.8 45.8,9.8 68.6,4.5 22.9,-5.3 45.5,-33.7 68.4,-25.3 22.8,8.3 45.8,53.3 57.3,75.8 L 960,278 V 0 H 948.5 C 937,0 914,0 891.2,0 868.3,0 845.7,0 822.8,0 800,0 777,0 754.2,0 731.3,0 708.7,0 685.8,0 663,0 640,0 617.2,0 594.3,0 571.7,0 548.8,0 526,0 503,0 480,0 457,0 434,0 411.2,0 388.3,0 365.7,0 342.8,0 320,0 297,0 274.2,0 251.3,0 228.7,0 205.8,0 183,0 160,0 137.2,0 114.3,0 91.7,0 68.8,0 46,0 23,0 11.5,0 H 0 Z"
     fill="#b13b0d"
     id="path12" />
  <path
     d="M 0,229 11.5,215.7 C 23,202.3 46,175.7 68.8,165 c 22.9,-10.7 45.5,-5.3 68.4,1.2 22.8,6.5 45.8,14.1 68.6,24.6 22.9,10.5 45.5,23.9 68.4,26.4 22.8,2.5 45.8,-5.9 68.6,-4 22.9,1.8 45.5,13.8 68.4,20.5 22.8,6.6 45.8,8 68.8,-2.9 23,-10.8 46,-33.8 68.8,-44.1 22.9,-10.4 45.5,-8 68.4,-10.9 22.8,-2.8 45.8,-10.8 68.6,-8.1 22.9,2.6 45.5,16 68.4,16.1 22.8,0.2 45.8,-12.8 68.6,-18.6 22.9,-5.9 45.5,-4.5 68.4,-7.2 22.8,-2.7 45.8,-9.3 57.3,-12.7 L 960,142 V 0 H 948.5 C 937,0 914,0 891.2,0 868.3,0 845.7,0 822.8,0 800,0 777,0 754.2,0 731.3,0 708.7,0 685.8,0 663,0 640,0 617.2,0 594.3,0 571.7,0 548.8,0 526,0 503,0 480,0 457,0 434,0 411.2,0 388.3,0 365.7,0 342.8,0 320,0 297,0 274.2,0 251.3,0 228.7,0 205.8,0 183,0 160,0 137.2,0 114.3,0 91.7,0 68.8,0 46,0 23,0 11.5,0 H 0 Z"
     fill="#bf470f"
     id="path14" />
  <path
     d="m 0,117 11.5,11 c 11.5,11 34.5,33 57.3,39.8 22.9,6.9 45.5,-1.5 68.4,-1.5 22.8,0 45.8,8.4 68.6,16.9 22.9,8.5 45.5,17.1 68.4,5.5 C 297,177 320,145 342.8,128.5 365.7,112 388.3,111 411.2,116 c 22.8,5 45.8,16 68.8,33 23,17 46,40 68.8,31.8 22.9,-8.1 45.5,-47.5 68.4,-56.8 22.8,-9.3 45.8,11.3 68.6,20.7 22.9,9.3 45.5,7.3 68.4,-3.4 22.8,-10.6 45.8,-30 68.6,-20.1 22.9,9.8 45.5,48.8 68.4,66.3 C 914,205 937,201 948.5,199 L 960,197 V 0 H 948.5 C 937,0 914,0 891.2,0 868.3,0 845.7,0 822.8,0 800,0 777,0 754.2,0 731.3,0 708.7,0 685.8,0 663,0 640,0 617.2,0 594.3,0 571.7,0 548.8,0 526,0 503,0 480,0 457,0 434,0 411.2,0 388.3,0 365.7,0 342.8,0 320,0 297,0 274.2,0 251.3,0 228.7,0 205.8,0 183,0 160,0 137.2,0 114.3,0 91.7,0 68.8,0 46,0 23,0 11.5,0 H 0 Z"
     fill="#cd520f"
     id="path16" />
  <path
     d="m 0,79 11.5,7.8 c 11.5,7.9 34.5,23.5 57.3,30.5 22.9,7 45.5,5.4 68.4,4.9 22.8,-0.5 45.8,0.1 68.6,-3.9 22.9,-4 45.5,-12.6 68.4,-12.5 22.8,0.2 45.8,9.2 68.6,7.4 22.9,-1.9 45.5,-14.5 68.4,-20.7 22.8,-6.2 45.8,-5.8 68.8,-4 23,1.8 46,5.2 68.8,5.2 22.9,0 45.5,-3.4 68.4,1.8 22.8,5.2 45.8,18.8 68.6,14.3 22.9,-4.5 45.5,-27.1 68.4,-33.8 22.8,-6.7 45.8,2.7 68.6,8.3 22.9,5.7 45.5,7.7 68.4,16.7 22.8,9 45.8,25 57.3,33 l 11.5,8 V 0 H 948.5 C 937,0 914,0 891.2,0 868.3,0 845.7,0 822.8,0 800,0 777,0 754.2,0 731.3,0 708.7,0 685.8,0 663,0 640,0 617.2,0 594.3,0 571.7,0 548.8,0 526,0 503,0 480,0 457,0 434,0 411.2,0 388.3,0 365.7,0 342.8,0 320,0 297,0 274.2,0 251.3,0 228.7,0 205.8,0 183,0 160,0 137.2,0 114.3,0 91.7,0 68.8,0 46,0 23,0 11.5,0 H 0 Z"
     fill="#db5e10"
     id="path18" />
  <path
     d="M 0,72 11.5,68 C 23,64 46,56 68.8,64.5 91.7,73 114.3,98 137.2,96 160,94 183,65 205.8,59.8 c 22.9,-5.1 45.5,13.5 68.4,23.7 22.8,10.2 45.8,11.8 68.6,15 22.9,3.2 45.5,7.8 68.4,-1.8 C 434,87 457,63 480,52.3 c 23,-10.6 46,-8 68.8,-3.5 22.9,4.5 45.5,10.9 68.4,22.4 C 640,82.7 663,99.3 685.8,95.7 708.7,92 731.3,68 754.2,54.5 777,41 800,38 822.8,49.7 c 22.9,11.6 45.5,38 68.4,45.6 C 914,103 937,92 948.5,86.5 L 960,81 V 0 H 948.5 C 937,0 914,0 891.2,0 868.3,0 845.7,0 822.8,0 800,0 777,0 754.2,0 731.3,0 708.7,0 685.8,0 663,0 640,0 617.2,0 594.3,0 571.7,0 548.8,0 526,0 503,0 480,0 457,0 434,0 411.2,0 388.3,0 365.7,0 342.8,0 320,0 297,0 274.2,0 251.3,0 228.7,0 205.8,0 183,0 160,0 137.2,0 114.3,0 91.7,0 68.8,0 46,0 23,0 11.5,0 H 0 Z"
     fill="#e96b10"
     id="path20" />
  <path
     d="m 0,61 11.5,1 c 11.5,1 34.5,3 57.3,2.7 22.9,-0.4 45.5,-3 68.4,-9.5 22.8,-6.5 45.8,-16.9 68.6,-21 22.9,-4.2 45.5,-2.2 68.4,-3 22.8,-0.9 45.8,-4.5 68.6,-3 22.9,1.5 45.5,8.1 68.4,8.1 22.8,0 45.8,-6.6 68.8,-1.1 23,5.5 46,23.1 68.8,20.1 22.9,-3 45.5,-26.6 68.4,-31.6 22.8,-5 45.8,8.6 68.6,10.5 22.9,1.8 45.5,-8.2 68.4,-12.9 22.8,-4.6 45.8,-4 68.6,-1 22.9,3 45.5,8.4 68.4,12.4 22.8,4 45.8,6.6 57.3,8 L 960,42 V 0 H 948.5 C 937,0 914,0 891.2,0 868.3,0 845.7,0 822.8,0 800,0 777,0 754.2,0 731.3,0 708.7,0 685.8,0 663,0 640,0 617.2,0 594.3,0 571.7,0 548.8,0 526,0 503,0 480,0 457,0 434,0 411.2,0 388.3,0 365.7,0 342.8,0 320,0 297,0 274.2,0 251.3,0 228.7,0 205.8,0 183,0 160,0 137.2,0 114.3,0 91.7,0 68.8,0 46,0 23,0 11.5,0 H 0 Z"
     fill="#f7770f"
     id="path22" />
</svg>
