<?xml version="1.0" encoding="UTF-8" standalone="no"?>
<svg
   version="1.1"
   width="6.25in"
   height="1.9in"
   id="svg44"
   sodipodi:docname="logo hotel pik.svg"
   inkscape:version="1.1.1 (3bf5ae0d25, 2021-09-20)"
   xmlns:inkscape="http://www.inkscape.org/namespaces/inkscape"
   xmlns:sodipodi="http://sodipodi.sourceforge.net/DTD/sodipodi-0.dtd"
   xmlns="http://www.w3.org/2000/svg"
   xmlns:svg="http://www.w3.org/2000/svg">
  <defs
     id="defs48" />
  <sodipodi:namedview
     id="namedview46"
     pagecolor="#ffffff"
     bordercolor="#999999"
     borderopacity="1"
     inkscape:pageshadow="0"
     inkscape:pageopacity="0"
     inkscape:pagecheckerboard="0"
     showgrid="false"
     inkscape:zoom="1.4664728"
     inkscape:cx="415.28217"
     inkscape:cy="213.77826"
     inkscape:window-width="2560"
     inkscape:window-height="1377"
     inkscape:window-x="-8"
     inkscape:window-y="322"
     inkscape:window-maximized="1"
     inkscape:current-layer="svg44"
     units="in"
     width="6.25in"
     height="2in"
     inkscape:document-units="in" />
  <g
     id="g996"
     transform="matrix(1.0796643,0,0,1.0796643,-18.475511,-170.07616)">
    <path
       d="m 566.0153,316.2643 h -25.327 L 528.6279,288.073 v 28.1913 h -23.2164 v -62.865 h 23.2164 v 21.1057 l 23.8194,-21.1057 h 9.9498 l -17.6384,15.8293 z"
       style="fill:#e30016;fill-rule:evenodd"
       id="path2" />
    <path
       d="m 484.758,251.4394 c 3.0151,0 5.578,0.9046 7.5378,2.5629 2.2613,1.6583 3.1659,3.7689 3.1659,6.0302 0,2.4121 -0.9046,4.5227 -3.1659,6.0302 -2.1106,1.8091 -4.5227,2.5629 -7.6885,2.5629 -2.8644,0 -5.578,-0.7538 -7.5378,-2.5629 -2.1106,-1.5075 -3.1659,-3.6181 -3.1659,-6.0302 0,-2.2613 1.0553,-4.3719 3.1659,-6.0302 2.1106,-1.6583 4.6734,-2.5629 7.6885,-2.5629 z"
       style="fill:#e30016;fill-rule:evenodd"
       id="path6" />
    <path
       d="m 494.1049,316.2643 h -18.8445 v -45.0759 l 18.8445,-0.4523 z"
       style="fill:#e30016;fill-rule:evenodd"
       id="path10" />
    <path
       d="m 58.2707,253.7008 v 8.7438 h -1.0553 c -1.8091,0 -3.0151,0.3015 -3.6182,0.9045 -0.4522,0.603 -0.7537,1.9598 -0.7537,4.3719 v 11.1559 H 69.8788 V 267.721 c 0,-2.4121 -0.3015,-3.7689 -0.7537,-4.3719 -0.6031,-0.603 -1.8091,-0.9045 -3.7689,-0.9045 h -0.9046 v -8.7438 h 34.2215 v 8.7438 h -3.1658 c -2.1106,0 -3.4674,0.3015 -4.0704,0.9045 -0.603,0.4523 -0.9046,1.9598 -0.9046,4.3719 v 33.7693 c 0,2.4121 0.3016,3.9196 0.9046,4.5226 0.603,0.4523 1.9598,0.7538 4.0704,0.7538 h 3.1658 v 8.8946 H 64.4516 v -8.8946 h 0.9046 c 1.809,0 3.0151,-0.3015 3.6181,-0.9045 0.603,-0.603 0.9045,-1.9598 0.9045,-4.3719 V 287.6208 H 52.8435 v 13.8695 c 0,2.4121 0.3015,3.7689 0.7537,4.3719 0.6031,0.603 1.8091,0.9045 3.6182,0.9045 h 1.0553 v 8.8946 H 24.0492 v -8.8946 h 3.0151 c 2.1106,0 3.4674,-0.1507 4.2211,-0.7538 0.6031,-0.4522 0.9046,-1.9598 0.9046,-4.5226 V 267.721 c 0,-2.4121 -0.3015,-3.9196 -0.9046,-4.5226 -0.603,-0.4523 -1.9598,-0.7538 -4.2211,-0.7538 h -3.0151 v -8.7438 z"
       style="fill:#e30016;fill-rule:evenodd"
       id="path14" />
    <path
       d="m 199.3778,263.3491 c -3.3166,0 -6.0302,1.2061 -7.8393,3.4674 -1.6583,2.4121 -2.5628,5.7287 -2.5628,10.1006 v 0.1508 h -9.1961 v -23.3671 h 65.1264 v 23.3671 h -9.0453 v -0.1508 c 0,-4.3719 -0.9046,-7.6885 -2.7136,-10.1006 -1.8091,-2.2613 -4.5227,-3.4674 -7.8393,-3.4674 h -2.7136 v 38.1412 c 0,2.4121 0.3015,3.9196 0.9045,4.5226 0.603,0.4523 1.9598,0.7538 4.2212,0.7538 h 5.1257 v 8.8946 h -40.704 v -8.8946 h 4.8241 c 2.1106,0 3.4674,-0.1507 4.2212,-0.7538 0.603,-0.4522 0.9045,-1.9598 0.9045,-4.5226 v -38.1412 z"
       style="fill:#e30016;fill-rule:evenodd"
       id="path18" />
    <path
       d="m 314.8566,253.7008 v 23.0656 h -9.7991 c -0.7538,-3.0151 -1.3568,-5.2765 -2.1106,-6.9348 -0.603,-1.8091 -1.5076,-3.1659 -2.5629,-4.0704 -1.206,-1.206 -2.5628,-2.1106 -4.2211,-2.5628 -1.6583,-0.4523 -4.3719,-0.7538 -8.1408,-0.7538 h -1.9598 -7.8393 V 279.48 h 2.2613 c 2.8644,0 4.8242,-0.7538 6.0302,-2.1106 1.0553,-1.3568 1.6583,-3.7689 1.6583,-7.2363 v -0.4522 h 7.6886 v 28.1912 h -7.6886 c -0.1507,-4.2211 -0.7537,-7.0855 -1.6583,-8.4423 -1.0553,-1.206 -3.0151,-1.9598 -5.8794,-1.9598 h -2.4121 v 19.2967 h 10.8544 c 4.2211,0 7.2362,-0.1507 8.7438,-0.7538 1.6583,-0.4522 2.8643,-1.3568 3.7689,-2.5628 1.0553,-1.5076 1.809,-3.3166 2.2613,-5.4272 0.603,-2.1106 0.9045,-4.6734 1.2061,-7.9901 h 10.1006 v 25.6285 h -65.2772 v -8.8946 h 3.0151 c 2.1106,0 3.4674,-0.1507 4.0704,-0.7538 0.7538,-0.4522 1.0553,-1.809 1.0553,-4.0704 v -0.4522 -33.7693 c 0,-2.4121 -0.3015,-3.9196 -0.9045,-4.3719 -0.603,-0.603 -2.1106,-0.9045 -4.2212,-0.9045 h -3.0151 v -8.7438 z"
       style="fill:#e30016;fill-rule:evenodd"
       id="path22" />
    <path
       d="m 359.7817,253.7008 v 8.7438 h -3.4674 c -2.1105,0 -3.4673,0.3015 -4.0704,0.7538 -0.603,0.4522 -0.9045,1.809 -0.9045,4.0704 v 0.4522 38.895 h 4.0704 c 3.9196,0 6.6332,-0.1508 8.1408,-0.6031 1.6583,-0.4522 2.8644,-1.0553 3.7689,-2.1105 1.206,-1.2061 2.1106,-3.0152 2.7136,-5.1257 0.603,-2.1106 0.9045,-5.1257 1.206,-9.0454 h 9.4976 v 25.93 h -58.1916 v -8.8946 h 3.0151 c 2.2613,0 3.6181,-0.3015 4.2212,-0.7538 0.603,-0.603 0.9045,-2.1105 0.9045,-4.5226 V 267.721 c 0,-2.4121 -0.3015,-3.9196 -0.9045,-4.3719 -0.6031,-0.603 -1.9599,-0.9045 -4.2212,-0.9045 h -3.0151 v -8.7438 z"
       style="fill:#e30016;fill-rule:evenodd"
       id="path26" />
    <path
       d="m 139.2264,261.2385 c -4.2212,0 -7.2363,1.9599 -9.1961,5.578 -1.8091,3.6181 -2.8644,9.4976 -2.8644,17.6384 0,8.2915 0.9046,14.3218 2.8644,18.0907 1.8091,3.6181 4.8242,5.4272 9.0453,5.4272 4.2212,0 7.2363,-1.8091 9.1961,-5.4272 1.8091,-3.6182 2.7136,-9.6484 2.7136,-17.7892 0,-8.1408 -0.9045,-14.171 -2.7136,-17.9399 -1.9598,-3.6181 -4.9749,-5.578 -9.0453,-5.578 z m -36.0306,23.5179 c 0,-10.2514 3.1659,-18.3922 9.6484,-24.1209 6.3317,-5.8794 15.0755,-8.7438 26.3822,-8.7438 11.1559,0 19.8997,2.8644 26.2314,8.7438 6.3318,5.7287 9.4976,13.8695 9.4976,24.1209 0,10.1006 -3.1658,18.2414 -9.4976,23.9701 -6.3317,5.8795 -15.2263,8.7439 -26.5329,8.7439 -11.0052,0 -19.8998,-3.0152 -26.2315,-8.7439 -6.3317,-5.8794 -9.4976,-13.8695 -9.4976,-23.9701 z"
       style="fill:#e30016;fill-rule:evenodd"
       id="path30" />
    <path
       d="m 433.0489,300.7365 c 3.9196,-3.6181 7.0855,-7.6885 9.0453,-12.362 1.3568,3.9197 2.8644,7.9901 3.1659,12.362 z m -2.2613,15.5278 h -18.3922 v -62.865 h 18.3922 v 7.8392 c 6.9347,-4.9749 14.3217,-9.0453 21.1057,-11.9096 -1.0553,10.2513 5.8795,18.5429 11.0052,22.0103 0.7538,0.4522 1.9598,1.809 2.2613,2.1105 7.387,6.784 0.603,17.6384 -6.784,19.5983 -6.4825,1.9598 -11.9097,-0.4523 -16.4323,-5.578 -4.0704,3.1659 -7.6886,5.1257 -11.1559,5.578 z m 0,-43.2668 v 8.7438 c 0.7537,0.7538 1.809,1.206 3.1658,1.3568 1.8091,-0.1508 5.2765,-1.0553 7.387,-2.7136 2.1106,2.5628 4.8242,3.6181 7.8393,2.7136 3.6182,-0.9045 6.784,-6.181 3.3167,-9.3468 -0.1508,-0.1508 -0.4523,-0.3016 -0.6031,-0.4523 -2.5628,-1.6583 -6.3317,-6.3317 -5.7287,-11.3067 -4.3719,1.8091 -9.6483,4.6734 -13.8695,8.2916 -0.4523,0.7538 -1.0553,1.809 -1.5075,2.7136 z"
       style="fill:#e30016;fill-rule:evenodd"
       id="path34" />
    <path
       d="m 236.6632,202.1565 12.1685,-9.4208 6.0842,-4.5141 H 232.149 l -4.5141,-13.3461 -2.3552,-7.2619 -2.5514,7.4582 -4.3179,12.9535 -22.3744,0.1963 6.0843,4.5141 12.1685,9.6171 -4.7104,14.3274 -2.7477,8.0469 6.673,-5.1029 11.776,-8.832 12.1685,8.6358 6.6731,4.7103 -2.5515,-7.6543 z"
       style="fill:#e30016;fill-rule:evenodd"
       id="path38" />
    <path
       d="m 306.1415,202.1565 11.9722,-9.4208 6.0843,-4.5141 h -22.7669 l -4.3179,-13.3461 -2.5515,-7.2619 -2.5514,7.4582 -4.1216,12.9535 -22.3744,0.1963 6.0843,4.5141 11.9722,9.6171 -4.7104,14.3274 -2.5514,8.0469 6.673,-5.1029 11.776,-8.832 12.1685,8.6358 6.4768,4.7103 -2.5514,-7.6543 z"
       style="fill:#e30016;fill-rule:evenodd"
       id="path40" />
    <path
       d="m 375.4235,202.1565 12.1685,-9.4208 6.0843,-4.5141 h -22.9632 l -4.3179,-13.3461 -2.5514,-7.2619 -2.3552,7.4582 -4.3179,12.9535 -22.3744,0.1963 6.0843,4.5141 11.9723,9.6171 -4.7104,14.3274 -2.5515,8.0469 6.6731,-5.1029 11.7759,-8.832 12.1686,8.6358 6.673,4.7103 -2.7477,-7.6543 z"
       style="fill:#e30016;fill-rule:evenodd"
       id="path42" />
  </g>
</svg>
